<svg width="20" height="20" viewBox="0 0 20 20" fill="none" xmlns="http://www.w3.org/2000/svg">
<g clip-path="url(#clip0_109_63)">
<mask id="mask0_109_63" style="mask-type:luminance" maskUnits="userSpaceOnUse" x="0" y="0" width="20" height="20">
<path d="M0 0H20V20H0V0Z" fill="white"/>
</mask>
<g mask="url(#mask0_109_63)">
<path d="M7.26351 3.586C7.62944 2.80987 8.1033 2.0894 8.67101 1.446C8.98701 1.116 10.021 0.612996 10.629 1.1635C11.0907 1.63744 11.52 2.14191 11.914 2.6735C12.3315 3.18467 12.7149 3.72284 13.0615 4.2845C13.6791 5.18203 14.1946 6.14566 14.5985 7.1575C14.6576 7.4486 14.6248 7.75086 14.5048 8.02258C14.3848 8.2943 14.1835 8.52208 13.9285 8.6745C13.6879 8.85024 13.3977 8.94495 13.0998 8.94495C12.8018 8.94495 12.5116 8.85024 12.271 8.6745C11.8468 8.26529 11.4597 7.81939 11.114 7.342C11.0367 7.25033 10.9613 7.157 10.888 7.062C10.8987 7.22507 10.8672 7.38816 10.7965 7.5355C10.5095 8.1005 9.31751 8.871 9.10651 9.0055C8.54453 9.37176 7.93792 9.66448 7.30151 9.8765C7.11151 9.919 6.91251 9.8945 6.73801 9.8075C6.45601 9.6665 6.03401 9.1175 5.90801 8.8385C5.70555 8.19843 5.58345 7.53568 5.54451 6.8655C5.41501 5.0465 5.73601 4.63 5.73601 4.63C5.80979 4.4708 5.93478 4.3409 6.09103 4.26106C6.24728 4.18121 6.42577 4.15602 6.59801 4.1895C6.71568 4.20416 6.83034 4.23133 6.94201 4.271C6.99701 4.164 7.05201 4.043 7.10701 3.921C7.15851 3.8075 7.21001 3.692 7.26351 3.586ZM11.087 16.675C10.9672 16.4904 10.8888 16.282 10.8572 16.0642C10.8257 15.8464 10.8417 15.6243 10.9043 15.4133C10.9668 15.2023 11.0744 15.0074 11.2195 14.8419C11.3647 14.6765 11.5439 14.5445 11.745 14.455C12.3202 14.3255 12.9056 14.2459 13.4945 14.217C13.412 14.1385 13.3427 14.0472 13.2895 13.9465C13.0745 13.5385 13.1955 12.2015 13.1955 11.625C13.2 10.962 13.287 10.303 13.454 9.6615C13.5223 9.47106 13.6562 9.31116 13.8316 9.21039C14.007 9.10962 14.2126 9.07456 14.4115 9.1115C15.0565 9.291 15.6775 9.55 16.2595 9.882C16.93 10.2605 18.158 10.976 18.462 11.8205C18.649 12.1255 18.608 12.5185 18.3615 12.778C18.283 12.8686 18.1965 12.9519 18.103 13.027L18.1365 13.0795C18.26 13.2735 18.386 13.471 18.4955 13.669C18.95 14.3971 19.2967 15.1871 19.525 16.0145C19.625 16.431 19.501 17.5845 18.6485 17.7955C17.5849 18.0069 16.5011 18.1 15.417 18.073C14.3314 18.0999 13.2462 18.0068 12.181 17.7955C11.728 17.5945 11.354 17.0855 11.0875 16.6745L11.087 16.675ZM5.38651 9.973C5.13746 9.81074 4.84336 9.73164 4.54651 9.7471C4.24967 9.76255 3.96537 9.87175 3.73451 10.059C3.01766 10.874 2.39459 11.7669 1.87701 12.721C1.30656 13.6482 0.840866 14.6359 0.488511 15.666C0.244511 16.4675 1.31201 17.6595 2.04001 17.873C2.8691 18.0906 3.72528 18.1872 4.58201 18.16H5.08101C5.23251 18.391 5.50501 18.775 5.71601 18.928C5.85801 19.031 6.03001 19.0845 6.20501 19.079C6.20501 19.079 6.71801 19.1745 8.28351 18.241C8.86362 17.9042 9.39786 17.494 9.87301 17.0205C10.0054 16.8686 10.0784 16.674 10.0785 16.4725C10.0785 16.057 9.69551 15.66 9.43701 15.3645C8.96855 14.8859 8.44076 14.4691 7.86651 14.1245C7.68001 14.0125 6.73601 13.4605 6.07051 13.316C6.26853 12.8938 6.43678 12.4582 6.57401 12.0125C6.62308 11.7179 6.57665 11.4153 6.44151 11.149C6.23901 10.7515 5.78351 10.1725 5.38651 9.974V9.973Z" fill="#00046D"/>
<path d="M7.26351 3.586C7.62944 2.80987 8.1033 2.0894 8.67101 1.446C8.98701 1.116 10.021 0.612996 10.629 1.1635C11.0907 1.63744 11.52 2.14191 11.914 2.6735C12.3315 3.18467 12.7149 3.72284 13.0615 4.2845C13.6791 5.18203 14.1946 6.14566 14.5985 7.1575C14.6576 7.4486 14.6248 7.75086 14.5048 8.02258C14.3848 8.2943 14.1835 8.52208 13.9285 8.6745C13.6879 8.85024 13.3977 8.94495 13.0998 8.94495C12.8018 8.94495 12.5116 8.85024 12.271 8.6745C11.8468 8.26529 11.4597 7.81939 11.114 7.342C11.0367 7.25033 10.9613 7.157 10.888 7.062C10.8987 7.22507 10.8672 7.38816 10.7965 7.5355C10.5095 8.1005 9.31751 8.871 9.10651 9.0055C8.54453 9.37176 7.93792 9.66448 7.30151 9.8765C7.11151 9.919 6.91251 9.8945 6.73801 9.8075C6.45601 9.6665 6.03401 9.1175 5.90801 8.8385C5.70555 8.19843 5.58345 7.53568 5.54451 6.8655C5.41501 5.0465 5.73601 4.63 5.73601 4.63C5.80979 4.4708 5.93478 4.3409 6.09103 4.26106C6.24728 4.18121 6.42577 4.15602 6.59801 4.1895C6.71568 4.20416 6.83034 4.23133 6.94201 4.271C6.99701 4.164 7.05201 4.043 7.10701 3.921C7.15851 3.8075 7.21001 3.692 7.26351 3.586ZM11.087 16.675C10.9672 16.4904 10.8888 16.282 10.8572 16.0642C10.8257 15.8464 10.8417 15.6243 10.9043 15.4133C10.9668 15.2023 11.0744 15.0074 11.2195 14.8419C11.3647 14.6765 11.5439 14.5445 11.745 14.455C12.3202 14.3255 12.9056 14.2459 13.4945 14.217C13.412 14.1385 13.3427 14.0472 13.2895 13.9465C13.0745 13.5385 13.1955 12.2015 13.1955 11.625C13.2 10.962 13.287 10.303 13.454 9.6615C13.5223 9.47106 13.6562 9.31116 13.8316 9.21039C14.007 9.10962 14.2126 9.07456 14.4115 9.1115C15.0565 9.291 15.6775 9.55 16.2595 9.882C16.93 10.2605 18.158 10.976 18.462 11.8205C18.649 12.1255 18.608 12.5185 18.3615 12.778C18.283 12.8686 18.1965 12.9519 18.103 13.027L18.1365 13.0795C18.26 13.2735 18.386 13.471 18.4955 13.669C18.95 14.3971 19.2967 15.1871 19.525 16.0145C19.625 16.431 19.501 17.5845 18.6485 17.7955C17.5849 18.0069 16.5011 18.1 15.417 18.073C14.3314 18.0999 13.2462 18.0068 12.181 17.7955C11.728 17.5945 11.354 17.0855 11.0875 16.6745L11.087 16.675ZM5.38651 9.973C5.13746 9.81074 4.84336 9.73164 4.54651 9.7471C4.24967 9.76255 3.96537 9.87175 3.73451 10.059C3.01766 10.874 2.39459 11.7669 1.87701 12.721C1.30656 13.6482 0.840866 14.6359 0.488511 15.666C0.244511 16.4675 1.31201 17.6595 2.04001 17.873C2.8691 18.0906 3.72528 18.1872 4.58201 18.16H5.08101C5.23251 18.391 5.50501 18.775 5.71601 18.928C5.85801 19.031 6.03001 19.0845 6.20501 19.079C6.20501 19.079 6.71801 19.1745 8.28351 18.241C8.86362 17.9042 9.39786 17.494 9.87301 17.0205C10.0054 16.8686 10.0784 16.674 10.0785 16.4725C10.0785 16.057 9.69551 15.66 9.43701 15.3645C8.96855 14.8859 8.44076 14.4691 7.86651 14.1245C7.68001 14.0125 6.73601 13.4605 6.07051 13.316C6.26853 12.8938 6.43678 12.4582 6.57401 12.0125C6.62308 11.7179 6.57665 11.4153 6.44151 11.149C6.23901 10.7515 5.78351 10.1725 5.38651 9.974V9.973Z" stroke="#00046D" stroke-width="0.5" stroke-miterlimit="10"/>
<path d="M19.089 15.4549C18.861 14.6274 18.5144 13.8372 18.06 13.1089C17.94 12.8934 17.801 12.6784 17.667 12.4674C17.761 12.3924 17.8472 12.3094 17.9255 12.2184C18.0456 12.0922 18.1205 11.9298 18.1387 11.7565C18.1569 11.5832 18.1173 11.4088 18.026 11.2604C17.839 10.9554 17.854 10.7824 16.2595 9.88242C15.6776 9.55043 15.0569 9.29148 14.4115 9.11142C14.2126 9.07459 14.0071 9.10969 13.8317 9.21044C13.6563 9.3112 13.5224 9.47105 13.454 9.66142C13.2869 10.3027 13.2 10.9622 13.1955 11.6249C13.1955 11.8784 13.1955 13.2954 13.507 13.8459C13.5995 14.0019 13.7355 14.1269 13.899 14.2059C13.174 14.2119 12.452 14.2959 11.745 14.4544C10.6745 14.9309 10.521 16.3879 11.469 17.0769C11.5557 17.1396 11.6477 17.1926 11.745 17.2359C12.8102 17.4474 13.8954 17.5407 14.981 17.5139C16.0652 17.5407 17.1489 17.4475 18.2125 17.2359C19.065 17.0254 19.19 15.8719 19.089 15.4549Z" fill="#B0F93F" stroke="#00046D" stroke-width="0.5" stroke-miterlimit="10"/>
<path d="M13.5071 13.832C13.5895 13.9886 13.7218 14.1132 13.883 14.1861C14.0442 14.259 14.2251 14.276 14.3971 14.2345C14.5127 14.209 14.6263 14.1752 14.7371 14.1335C14.8521 14.3585 14.9771 14.5835 15.0961 14.7945" stroke="#00046D" stroke-width="0.5" stroke-miterlimit="10" stroke-linecap="round"/>
<path d="M8.6711 1.44562C8.1033 2.08933 7.62944 2.81014 7.2636 3.58662C7.1531 3.80662 7.0481 4.06512 6.9426 4.27112C6.83086 4.23164 6.71519 4.20432 6.5976 4.18962C6.42541 4.1561 6.24696 4.18122 6.09072 4.26098C5.93448 4.34073 5.80946 4.47051 5.7356 4.62962C5.5841 4.95712 5.4151 5.04662 5.5441 6.86562C5.5836 7.53562 5.7056 8.19862 5.9091 8.83862C5.98927 9.01625 6.12822 9.16082 6.30254 9.24798C6.47685 9.33514 6.67588 9.35956 6.8661 9.31712C7.50251 9.1051 8.10911 8.81238 8.6711 8.44612C8.8821 8.31212 10.0741 7.54112 10.3611 6.97612C10.4391 6.81212 10.4691 6.62962 10.4471 6.44912C10.8481 7.05332 11.3137 7.61211 11.8356 8.11562C12.0761 8.29113 12.3661 8.3857 12.6638 8.3857C12.9616 8.3857 13.2516 8.29113 13.4921 8.11562C13.7471 7.96317 13.9486 7.73531 14.0686 7.46349C14.1886 7.19167 14.2213 6.8893 14.1621 6.59812C13.7583 5.5863 13.243 4.62268 12.6256 3.72512C12.0564 2.8004 11.3869 1.94136 10.6291 1.16362C10.0211 0.613117 8.9871 1.11562 8.6711 1.44562Z" fill="#B0F93F" stroke="#00046D" stroke-width="0.5" stroke-miterlimit="10"/>
<path d="M10.3801 6.99497C10.4637 6.8411 10.4945 6.66406 10.4677 6.491C10.441 6.31795 10.3582 6.15845 10.2321 6.03697C10.1467 5.9539 10.0555 5.87704 9.95911 5.80697C10.0831 5.58697 10.2081 5.36247 10.3181 5.14697" stroke="#00046D" stroke-width="0.5" stroke-miterlimit="10" stroke-linecap="round"/>
<path d="M1.60455 17.3125C2.43305 17.5305 3.28955 17.627 4.14655 17.6H4.90305C4.91971 17.7187 4.94688 17.8352 4.98455 17.9495C5.03414 18.1178 5.13803 18.265 5.28003 18.3681C5.42202 18.4712 5.59414 18.5245 5.76955 18.5195C6.13005 18.509 6.28155 18.6145 7.84755 17.6815C8.42769 17.3446 8.96193 16.9342 9.43705 16.4605C9.56976 16.3087 9.6429 16.1139 9.6429 15.9123C9.6429 15.7106 9.56976 15.5158 9.43705 15.364C8.96859 14.8854 8.4408 14.4687 7.86655 14.124C7.65155 13.995 6.43005 13.2815 5.78855 13.2815C5.60779 13.2848 5.43173 13.3396 5.28105 13.4395C5.63849 12.8103 5.92588 12.1438 6.13805 11.452C6.18678 11.1576 6.14015 10.8553 6.00496 10.5892C5.86977 10.3232 5.65309 10.1073 5.38655 9.97302C5.13763 9.81038 4.84346 9.73107 4.54652 9.74653C4.24958 9.76198 3.96524 9.87142 3.73455 10.059C3.0177 10.874 2.39463 11.767 1.87705 12.721C1.30659 13.6482 0.840903 14.636 0.488547 15.666C0.235047 16.4995 1.16355 17.184 1.60355 17.313L1.60455 17.3125Z" fill="#B0F93F" stroke="#00046D" stroke-width="0.5" stroke-miterlimit="10"/>
<path d="M5.77899 13.2816C5.60359 13.2766 5.43147 13.3298 5.28947 13.433C5.14748 13.5361 5.04359 13.6832 4.99399 13.8516C4.95738 13.9655 4.93012 14.0822 4.91249 14.2006C4.65899 14.2006 4.40499 14.1766 4.15649 14.1766" stroke="#00046D" stroke-width="0.5" stroke-miterlimit="10" stroke-linecap="round"/>
</g>
</g>
<defs>
<clipPath id="clip0_109_63">
<rect width="20" height="20" fill="white"/>
</clipPath>
</defs>
</svg>
